<svg height='300px' width='300px'  fill="#000000" xmlns="http://www.w3.org/2000/svg" xmlns:xlink="http://www.w3.org/1999/xlink" version="1.0" x="0px" y="0px" viewBox="0 0 100 100" xml:space="preserve">
    <path d="M80,10c0,9.206-8.955,16.667-20,16.667V20h-6.667l3.334-3.333L50,10l-6.667,6.667L46.667,20H40v6.667  c-11.045,0-20-7.462-20-16.667C6.667,24.727,6.667,48.607,20,63.332c0-9.205,8.955-16.665,20-16.665v6.665h6.667v6.667l-3.333,3.333  l3.333,3.334v10l-3.333,3.333l3.333,3.333v6.667h6.667v-6.667l3.334-3.333l-3.334-3.333v-10l3.334-3.334l-3.334-3.333v-6.667H60  v-6.665c11.045,0,20,7.46,20,16.665C93.333,48.607,93.333,24.727,80,10z M40,40c-8.561,0-16.191,3.548-21.074,9.053  c-3.057-7.887-3.057-16.885,0-24.772c4.883,5.504,12.513,9.053,21.074,9.053V40z M53.333,46.667h-6.667v-20h6.667V46.667z M60,40  v-6.667c8.562,0,16.191-3.548,21.074-9.053c3.057,7.887,3.057,16.885,0,24.772C76.191,43.549,68.562,40,60,40z"></path>
</svg>